<?xml version="1.0" standalone="no"?>
<!DOCTYPE svg PUBLIC "-//W3C//DTD SVG 20010904//EN"
 "http://www.w3.org/TR/2001/REC-SVG-20010904/DTD/svg10.dtd">
<svg version="1.0" xmlns="http://www.w3.org/2000/svg"
 width="1280.000000pt" height="1100.000000pt" viewBox="0 0 1280.000000 1100.000000"
 preserveAspectRatio="xMidYMid meet">
<g transform="translate(0.000000,1100.000000) scale(0.100000,-0.100000)"
fill="#000000" stroke="none">
<path d="M3178 10980 c-109 -24 -156 -48 -202 -102 -77 -89 -98 -254 -77 -588
7 -116 7 -187 1 -211 -17 -59 -55 -87 -156 -110 -144 -33 -203 -54 -355 -125
-184 -85 -283 -124 -314 -124 -28 0 -28 0 -189 184 -206 237 -328 326 -458
334 -59 4 -75 0 -130 -25 -78 -37 -132 -86 -313 -280 -163 -175 -205 -241
-212 -337 -10 -130 39 -209 284 -452 106 -106 193 -196 193 -202 0 -5 -25 -50
-56 -98 -88 -141 -179 -338 -240 -521 -65 -195 -66 -197 -101 -221 -24 -15
-58 -17 -313 -17 -247 -1 -291 -3 -331 -18 -59 -23 -113 -68 -145 -122 -59
-101 -82 -384 -49 -604 26 -171 62 -247 143 -301 88 -58 118 -63 451 -69 l305
-6 32 -100 c17 -55 44 -131 59 -170 42 -109 160 -334 211 -400 67 -87 78 -118
59 -155 -8 -16 -70 -82 -138 -147 -300 -287 -368 -369 -386 -466 -11 -59 2
-128 33 -181 110 -185 442 -493 569 -527 93 -25 201 14 309 110 35 31 140 139
234 241 95 102 188 200 208 219 l35 34 118 -55 c179 -84 294 -125 574 -202 93
-26 92 -21 79 -256 -13 -265 -13 -526 1 -592 21 -98 65 -165 130 -198 88 -45
152 -54 384 -54 402 2 489 31 562 191 55 120 64 260 37 632 -12 160 -13 230
-6 247 9 19 40 32 171 74 196 62 300 103 454 181 65 33 123 59 127 57 4 -2 93
-97 197 -213 311 -344 393 -405 552 -405 101 0 156 32 333 194 253 233 323
333 323 461 0 61 -5 79 -35 135 -41 76 -146 190 -310 333 -195 172 -220 199
-220 238 0 23 26 81 89 194 88 158 141 273 197 430 55 153 110 182 323 171
384 -19 419 -19 486 -1 87 23 137 61 169 127 40 83 51 177 50 433 -1 203 -3
239 -23 310 -29 110 -61 152 -141 192 -96 48 -177 57 -410 47 -265 -12 -300
-11 -338 5 -49 21 -70 58 -102 185 -32 123 -38 138 -147 346 -40 74 -79 162
-88 194 -28 96 -21 107 175 294 183 176 250 258 282 349 40 114 4 248 -98 363
-302 341 -390 409 -524 410 -136 0 -248 -84 -515 -385 -101 -114 -137 -143
-186 -151 -35 -6 -56 3 -229 99 -36 19 -135 57 -220 82 -187 57 -291 104 -321
146 -21 30 -21 34 -13 217 16 337 -1 480 -67 584 -66 102 -140 134 -342 149
-287 20 -346 20 -439 -1z m417 -2460 c230 -33 421 -122 573 -265 176 -166 263
-357 279 -612 15 -258 -65 -503 -224 -682 -321 -360 -957 -435 -1393 -163
-189 117 -322 293 -386 509 -32 109 -44 319 -24 440 74 463 476 779 995 782
61 0 142 -4 180 -9z"/>
<path d="M8755 7700 c-213 -13 -315 -58 -382 -169 -60 -100 -68 -159 -68 -504
0 -264 -2 -310 -15 -316 -8 -5 -51 -16 -95 -26 -201 -44 -451 -139 -671 -255
-134 -71 -173 -81 -217 -59 -12 6 -112 102 -222 212 -214 216 -271 259 -369
279 -73 16 -160 -5 -244 -58 -68 -43 -319 -288 -405 -394 -111 -138 -147 -256
-113 -372 28 -98 100 -189 320 -407 113 -111 206 -207 206 -212 0 -5 -29 -67
-64 -137 -111 -223 -195 -472 -222 -661 -11 -78 -18 -99 -39 -120 l-26 -26
-367 -1 c-376 -1 -392 -2 -494 -42 -39 -16 -107 -80 -127 -121 -85 -169 -78
-795 9 -936 55 -89 161 -141 309 -152 46 -3 238 0 428 7 294 11 346 11 357 -1
8 -8 24 -45 36 -84 56 -176 144 -367 269 -585 40 -70 71 -135 71 -151 0 -21
-14 -39 -62 -81 -115 -98 -452 -420 -511 -487 -66 -76 -113 -165 -123 -233
-19 -137 109 -320 405 -578 73 -63 153 -127 179 -142 181 -105 384 -23 638
258 49 55 147 166 217 247 112 129 131 147 158 147 18 0 86 -29 172 -74 192
-101 283 -140 477 -206 l165 -55 0 -115 c-1 -63 -5 -236 -9 -385 -8 -238 -7
-280 8 -355 22 -108 58 -179 116 -234 83 -78 147 -91 555 -113 106 -6 253 13
350 44 145 47 205 136 227 339 9 85 8 158 -6 397 -17 266 -17 296 -3 323 20
38 57 54 227 100 169 45 288 89 461 170 152 71 194 78 263 44 64 -31 132 -96
279 -267 150 -176 212 -232 305 -275 55 -26 71 -30 130 -26 42 2 84 12 112 25
67 33 200 143 335 278 189 189 275 317 283 425 11 147 -80 278 -375 537 -232
204 -243 235 -140 406 78 128 99 179 152 362 52 177 88 263 130 314 50 58 67
61 299 51 357 -16 507 11 621 111 81 72 112 165 126 379 22 361 22 349 0 453
-34 168 -93 243 -226 287 -88 29 -251 40 -440 28 -275 -17 -345 -16 -385 8
-46 27 -75 80 -100 185 -29 126 -42 157 -131 320 -45 82 -94 181 -110 221 -29
75 -37 154 -19 188 5 10 82 83 171 162 197 174 286 275 342 387 40 81 42 89
42 175 0 81 -3 98 -30 149 -50 99 -374 445 -487 520 -121 80 -220 91 -333 38
-116 -54 -220 -148 -438 -398 -117 -133 -156 -163 -211 -163 -48 0 -89 18
-178 78 -99 67 -103 68 -353 162 -228 86 -322 127 -344 154 -10 12 -10 43 0
163 18 213 16 481 -4 566 -34 137 -96 215 -206 259 -50 20 -76 22 -256 24
-110 1 -258 -2 -330 -6z m273 -2665 c374 -61 734 -332 917 -690 221 -434 146
-893 -202 -1226 -223 -214 -467 -310 -751 -296 -509 25 -986 432 -1124 957
-28 110 -35 292 -14 404 47 248 190 477 402 642 236 184 494 254 772 209z"/>
</g>
</svg>
